# Blender 3.6.2
# www.blender.org
mtllib circle.mtl
o Circle
v 0.000000 0.000000 0.000000
v 0.000000 0.000000 -2.500000
v -0.772542 0.000000 -2.377641
v -1.469463 0.000000 -2.022542
v -2.022542 0.000000 -1.469463
v -2.377641 0.000000 -0.772542
v -2.500000 0.000000 0.000000
v -2.377641 0.000000 0.772542
v -2.022542 0.000000 1.469463
v -1.469463 0.000000 2.022542
v -0.772542 0.000000 2.377641
v 0.000000 0.000000 2.500000
v 0.772542 0.000000 2.377641
v 1.469463 0.000000 2.022542
v 2.022542 0.000000 1.469463
v 2.377641 0.000000 0.772542
v 2.500000 0.000000 0.000000
v 2.377641 0.000000 -0.772542
v 2.022542 0.000000 -1.469463
v 1.469463 0.000000 -2.022542
v 0.772542 0.000000 -2.377641
v 0.000000 -0.010000 0.000000
v -0.772542 -0.010000 -2.377641
v 0.000000 -0.010000 -2.500000
v -1.469463 -0.010000 -2.022542
v -2.022542 -0.010000 -1.469463
v -2.377641 -0.010000 -0.772542
v -2.500000 -0.010000 0.000000
v -2.377641 -0.010000 0.772542
v -2.022542 -0.010000 1.469463
v -1.469463 -0.010000 2.022542
v -0.772542 -0.010000 2.377641
v 0.000000 -0.010000 2.500000
v 0.772542 -0.010000 2.377641
v 1.469463 -0.010000 2.022542
v 2.022542 -0.010000 1.469463
v 2.377641 -0.010000 0.772542
v 2.500000 -0.010000 0.000000
v 2.377641 -0.010000 -0.772542
v 2.022542 -0.010000 -1.469463
v 1.469463 -0.010000 -2.022542
v 0.772542 -0.010000 -2.377641
vn -0.0000 1.0000 -0.0000
vn -0.0000 -1.0000 -0.0000
vn 0.4540 -0.0000 -0.8910
vn -0.1564 -0.0000 -0.9877
vn -0.7071 -0.0000 0.7071
vn 0.4540 -0.0000 0.8910
vn 0.9877 -0.0000 -0.1564
vn -0.9877 -0.0000 -0.1564
vn 0.1564 -0.0000 -0.9877
vn -0.4540 -0.0000 0.8910
vn 0.7071 -0.0000 0.7071
vn -0.4540 -0.0000 -0.8910
vn 0.8910 -0.0000 -0.4540
vn -0.9877 -0.0000 0.1564
vn -0.1564 -0.0000 0.9877
vn 0.8910 -0.0000 0.4540
vn -0.7071 -0.0000 -0.7071
vn 0.7071 -0.0000 -0.7071
vn -0.8910 -0.0000 0.4540
vn 0.1564 -0.0000 0.9877
vn 0.9877 -0.0000 0.1564
vn -0.8910 -0.0000 -0.4540
vt 0.500000 0.500000
vt 0.500000 1.000000
vt 0.345491 0.975528
vt 0.206107 0.904508
vt 0.095491 0.793893
vt 0.024472 0.654508
vt 0.000000 0.500000
vt 0.024472 0.345491
vt 0.095491 0.206107
vt 0.206107 0.095491
vt 0.345491 0.024472
vt 0.500000 0.000000
vt 0.654508 0.024472
vt 0.793893 0.095491
vt 0.904508 0.206107
vt 0.975528 0.345491
vt 1.000000 0.500000
vt 0.975528 0.654508
vt 0.904508 0.793893
vt 0.793893 0.904508
vt 0.654508 0.975528
s 0
f 1/1/1 2/2/1 3/3/1
f 1/1/1 3/3/1 4/4/1
f 1/1/1 4/4/1 5/5/1
f 1/1/1 5/5/1 6/6/1
f 1/1/1 6/6/1 7/7/1
f 1/1/1 7/7/1 8/8/1
f 1/1/1 8/8/1 9/9/1
f 1/1/1 9/9/1 10/10/1
f 1/1/1 10/10/1 11/11/1
f 1/1/1 11/11/1 12/12/1
f 1/1/1 12/12/1 13/13/1
f 1/1/1 13/13/1 14/14/1
f 1/1/1 14/14/1 15/15/1
f 1/1/1 15/15/1 16/16/1
f 1/1/1 16/16/1 17/17/1
f 1/1/1 17/17/1 18/18/1
f 1/1/1 18/18/1 19/19/1
f 1/1/1 19/19/1 20/20/1
f 1/1/1 20/20/1 21/21/1
f 1/1/1 21/21/1 2/2/1
f 22/1/2 23/3/2 24/2/2
f 22/1/2 25/4/2 23/3/2
f 22/1/2 26/5/2 25/4/2
f 22/1/2 27/6/2 26/5/2
f 22/1/2 28/7/2 27/6/2
f 22/1/2 29/8/2 28/7/2
f 22/1/2 30/9/2 29/8/2
f 22/1/2 31/10/2 30/9/2
f 22/1/2 32/11/2 31/10/2
f 22/1/2 33/12/2 32/11/2
f 22/1/2 34/13/2 33/12/2
f 22/1/2 35/14/2 34/13/2
f 22/1/2 36/15/2 35/14/2
f 22/1/2 37/16/2 36/15/2
f 22/1/2 38/17/2 37/16/2
f 22/1/2 39/18/2 38/17/2
f 22/1/2 40/19/2 39/18/2
f 22/1/2 41/20/2 40/19/2
f 22/1/2 42/21/2 41/20/2
f 22/1/2 24/2/2 42/21/2
f 21/21/3 20/20/3 41/20/3 42/21/3
f 3/3/4 2/2/4 24/2/4 23/3/4
f 10/10/5 9/9/5 30/9/5 31/10/5
f 14/14/6 13/13/6 34/13/6 35/14/6
f 18/18/7 17/17/7 38/17/7 39/18/7
f 7/7/8 6/6/8 27/6/8 28/7/8
f 2/2/9 21/21/9 42/21/9 24/2/9
f 11/11/10 10/10/10 31/10/10 32/11/10
f 15/15/11 14/14/11 35/14/11 36/15/11
f 4/4/12 3/3/12 23/3/12 25/4/12
f 19/19/13 18/18/13 39/18/13 40/19/13
f 8/8/14 7/7/14 28/7/14 29/8/14
f 12/12/15 11/11/15 32/11/15 33/12/15
f 16/16/16 15/15/16 36/15/16 37/16/16
f 5/5/17 4/4/17 25/4/17 26/5/17
f 20/20/18 19/19/18 40/19/18 41/20/18
f 9/9/19 8/8/19 29/8/19 30/9/19
f 13/13/20 12/12/20 33/12/20 34/13/20
f 17/17/21 16/16/21 37/16/21 38/17/21
f 6/6/22 5/5/22 26/5/22 27/6/22
