<svg width="24" height="24" viewBox="0 0 24 24" fill="none" xmlns="http://www.w3.org/2000/svg">
<g clip-path="url(#clip0_884_1608)">
<path d="M18.4401 10.4067L12.0001 4L5.56014 10.4067C5.48415 10.4645 5.42149 10.538 5.37639 10.6222C5.33129 10.7064 5.3048 10.7993 5.29872 10.8946C5.29264 10.9899 5.3071 11.0854 5.34114 11.1747C5.37518 11.2639 5.42799 11.3448 5.496 11.4118C5.56402 11.4789 5.64564 11.5305 5.73535 11.5633C5.82506 11.596 5.92076 11.6091 6.01598 11.6017C6.11119 11.5943 6.2037 11.5664 6.28723 11.5201C6.37076 11.4738 6.44337 11.4101 6.50014 11.3333L11.3335 6.54V19.2933C11.3335 19.4701 11.4037 19.6397 11.5287 19.7647C11.6538 19.8898 11.8233 19.96 12.0001 19.96C12.1769 19.96 12.3465 19.8898 12.4715 19.7647C12.5966 19.6397 12.6668 19.4701 12.6668 19.2933V6.54L17.5001 11.3333C17.6257 11.458 17.7956 11.5277 17.9725 11.527C18.1494 11.5264 18.3188 11.4555 18.4435 11.33C18.5681 11.2045 18.6378 11.0346 18.6372 10.8576C18.6365 10.6807 18.5657 10.5113 18.4401 10.3867V10.4067Z" fill="black"/>
</g>
<defs>
<clipPath id="clip0_884_1608">
<rect width="24" height="24" fill="white"/>
</clipPath>
</defs>
</svg>
