<svg width="24" height="24" viewBox="0 0 24 24" fill="none" xmlns="http://www.w3.org/2000/svg">
<path fill-rule="evenodd" clip-rule="evenodd" d="M15.8464 4.07133C12.3547 2.67463 8.10257 3.46096 5.61475 6.20112L5.61463 6.20126C4.39414 7.54486 3.62867 9.23927 3.4272 11.0432C3.22573 12.8472 3.59854 14.6687 4.49254 16.2485C5.38654 17.8282 6.75616 19.0857 8.40637 19.8417C10.0566 20.5978 11.9033 20.8139 13.6835 20.4594L13.6837 20.4594C17.2903 19.7422 19.9351 16.5 20.6395 12.9779C20.7208 12.5717 21.1159 12.3083 21.5221 12.3895C21.9282 12.4708 22.1916 12.8659 22.1104 13.2721C21.3148 17.25 18.3047 21.0698 13.9763 21.9306C11.8865 22.3467 9.71873 22.0929 7.78158 21.2054C5.84437 20.3178 4.23656 18.8417 3.18709 16.9872C2.13761 15.1328 1.69996 12.9944 1.93647 10.8767C2.17297 8.75912 3.07152 6.77008 4.50419 5.19283M4.50432 5.19269C7.45851 1.93897 12.3953 1.07535 16.4035 2.67862C16.7881 2.83245 16.9752 3.26893 16.8213 3.65352C16.6675 4.03811 16.231 4.22517 15.8464 4.07133" fill="black"/>
<path fill-rule="evenodd" clip-rule="evenodd" d="M21.8837 5.0739C22.1881 5.35485 22.2071 5.82935 21.9261 6.13371L12.9261 15.8837C12.7877 16.0337 12.5941 16.1208 12.39 16.1249C12.1859 16.1289 11.989 16.0497 11.8447 15.9053L8.09467 12.1553C7.80178 11.8624 7.80178 11.3876 8.09467 11.0947C8.38756 10.8018 8.86244 10.8018 9.15533 11.0947L12.3534 14.2927L20.8239 5.11629C21.1048 4.81193 21.5793 4.79295 21.8837 5.0739Z" fill="black"/>
</svg>
