<svg width="32" height="32" viewBox="0 0 32 32" fill="none" xmlns="http://www.w3.org/2000/svg">
<path fill-rule="evenodd" clip-rule="evenodd" d="M15.4961 1.13621C15.8075 0.954597 16.1925 0.954597 16.5038 1.13621L19.9326 3.13621C20.4096 3.41448 20.5708 4.02679 20.2925 4.50385C20.0142 4.98091 19.4019 5.14206 18.9249 4.86379L16 3.15769L13.0751 4.86379C12.598 5.14206 11.9857 4.98091 11.7074 4.50385C11.4291 4.02679 11.5903 3.41448 12.0674 3.13621L15.4961 1.13621Z" fill="black"/>
<path fill-rule="evenodd" clip-rule="evenodd" d="M16 1C16.5523 1 17 1.44772 17 2V7C17 7.55228 16.5523 8 16 8C15.4477 8 15 7.55228 15 7V2C15 1.44772 15.4477 1 16 1Z" fill="black"/>
<path fill-rule="evenodd" clip-rule="evenodd" d="M11.7074 27.4961C11.9857 27.0191 12.598 26.8579 13.0751 27.1362L16 28.8423L18.9249 27.1362C19.4019 26.8579 20.0142 27.0191 20.2925 27.4961C20.5708 27.9732 20.4096 28.5855 19.9326 28.8638L16.5038 30.8638C16.1925 31.0454 15.8075 31.0454 15.4961 30.8638L12.0674 28.8638C11.5903 28.5855 11.4291 27.9732 11.7074 27.4961Z" fill="black"/>
<path fill-rule="evenodd" clip-rule="evenodd" d="M16 24C16.5523 24 17 24.4477 17 25V30C17 30.5523 16.5523 31 16 31C15.4477 31 15 30.5523 15 30V25C15 24.4477 15.4477 24 16 24Z" fill="black"/>
<path fill-rule="evenodd" clip-rule="evenodd" d="M8.18207 6.52065C8.46372 6.99572 8.30691 7.60916 7.83184 7.89081L5 9.56967V12.9694C5 13.5216 4.55228 13.9694 4 13.9694C3.44772 13.9694 3 13.5216 3 12.9694V8.99999C3 8.64684 3.18626 8.31988 3.49003 8.13979L6.81191 6.17042C7.28698 5.88877 7.90042 6.04557 8.18207 6.52065Z" fill="black"/>
<path fill-rule="evenodd" clip-rule="evenodd" d="M3.14032 8.48899C3.42252 8.01425 4.03615 7.85817 4.51089 8.14038L8.71651 10.6404C9.19125 10.9226 9.34733 11.5362 9.06513 12.011C8.78292 12.4857 8.1693 12.6418 7.69456 12.3596L3.48893 9.85957C3.01419 9.57736 2.85811 8.96373 3.14032 8.48899Z" fill="black"/>
<path fill-rule="evenodd" clip-rule="evenodd" d="M28 18.0306C28.5523 18.0306 29 18.4784 29 19.0306V23C29 23.3532 28.8137 23.6801 28.51 23.8602L25.1881 25.8296C24.713 26.1112 24.0996 25.9544 23.8179 25.4794C23.5363 25.0043 23.6931 24.3908 24.1682 24.1092L27 22.4303V19.0306C27 18.4784 27.4477 18.0306 28 18.0306Z" fill="black"/>
<path fill-rule="evenodd" clip-rule="evenodd" d="M22.9348 19.989C23.217 19.5143 23.8306 19.3582 24.3053 19.6404L28.5109 22.1404C28.9857 22.4226 29.1418 23.0362 28.8596 23.511C28.5774 23.9857 27.9637 24.1418 27.489 23.8596L23.2834 21.3596C22.8086 21.0774 22.6525 20.4637 22.9348 19.989Z" fill="black"/>
<path fill-rule="evenodd" clip-rule="evenodd" d="M4 18.0306C4.55228 18.0306 5 18.4784 5 19.0306V22.4348L7.83767 24.1433C8.31082 24.4282 8.46345 25.0427 8.17858 25.5158C7.89372 25.989 7.27922 26.1416 6.80608 25.8567L3.4842 23.8567C3.18374 23.6758 3 23.3507 3 23V19.0306C3 18.4784 3.44772 18.0306 4 18.0306Z" fill="black"/>
<path fill-rule="evenodd" clip-rule="evenodd" d="M9.02231 19.9854C9.30654 20.4589 9.15308 21.0732 8.67955 21.3574L4.51455 23.8574C4.04102 24.1417 3.42674 23.9882 3.1425 23.5147C2.85827 23.0411 3.01173 22.4269 3.48526 22.1426L7.65026 19.6426C8.12379 19.3584 8.73808 19.5119 9.02231 19.9854Z" fill="black"/>
<path fill-rule="evenodd" clip-rule="evenodd" d="M23.8179 6.52065C24.0996 6.04557 24.713 5.88877 25.1881 6.17042L28.51 8.13979C28.8137 8.31988 29 8.64684 29 8.99999V12.9694C29 13.5216 28.5523 13.9694 28 13.9694C27.4477 13.9694 27 13.5216 27 12.9694V9.56967L24.1682 7.89081C23.6931 7.60916 23.5363 6.99572 23.8179 6.52065Z" fill="black"/>
<path fill-rule="evenodd" clip-rule="evenodd" d="M28.8596 8.48899C29.1418 8.96373 28.9857 9.57736 28.5109 9.85957L24.3053 12.3596C23.8306 12.6418 23.2169 12.4857 22.9347 12.011C22.6525 11.5362 22.8086 10.9226 23.2834 10.6404L27.489 8.14038C27.9637 7.85817 28.5773 8.01425 28.8596 8.48899ZM11.7074 13.4961C11.9857 13.0191 12.598 12.8579 13.0751 13.1362L16 14.8423L18.9249 13.1362C19.4019 12.8579 20.0142 13.0191 20.2925 13.4961C20.5708 13.9732 20.4096 14.5855 19.9326 14.8638L17 16.5744V20C17 20.5523 16.5522 21 16 21C15.4477 21 15 20.5523 15 20V16.5744L12.0674 14.8638C11.5903 14.5855 11.4291 13.9732 11.7074 13.4961Z" fill="black"/>
</svg>
