<svg width="32" height="32" viewBox="0 0 32 32" fill="none" xmlns="http://www.w3.org/2000/svg">
    <path
        d="M22.7071 9.29301C22.5759 9.16168 22.4107 9.06948 22.23 9.02674C22.0493 8.98399 21.8603 8.9924 21.6841 9.05101L12.6841 12.051C12.5367 12.1001 12.4028 12.1829 12.2929 12.2928C12.183 12.4027 12.1003 12.5366 12.0511 12.684L9.05112 21.684C8.99236 21.8602 8.98383 22.0493 9.02649 22.2301C9.06915 22.4108 9.16131 22.5761 9.29265 22.7075C9.42398 22.8388 9.5893 22.931 9.77007 22.9736C9.95084 23.0163 10.1399 23.0078 10.3161 22.949L19.3161 19.949C19.4635 19.8999 19.5975 19.8171 19.7073 19.7072C19.8172 19.5973 19.9 19.4634 19.9491 19.316L22.9491 10.316C23.0077 10.1398 23.0161 9.95082 22.9734 9.77014C22.9306 9.58946 22.8384 9.42425 22.7071 9.29301ZM11.5811 20.42L13.7911 13.792L18.2101 18.211L11.5811 20.42Z"
        fill="black" />
    <path
        d="M16 30C13.2311 30 10.5243 29.1789 8.22202 27.6406C5.91973 26.1022 4.12532 23.9157 3.06569 21.3576C2.00607 18.7994 1.72882 15.9845 2.26901 13.2687C2.80921 10.553 4.14258 8.05845 6.10051 6.10051C8.05845 4.14258 10.553 2.80921 13.2687 2.26901C15.9845 1.72882 18.7994 2.00607 21.3576 3.06569C23.9157 4.12532 26.1022 5.91973 27.6406 8.22202C29.1789 10.5243 30 13.2311 30 16C29.9958 19.7117 28.5194 23.2702 25.8948 25.8948C23.2702 28.5194 19.7117 29.9958 16 30ZM16 4.00001C13.6266 4.00001 11.3066 4.70379 9.33316 6.02237C7.35977 7.34095 5.8217 9.21509 4.91345 11.4078C4.0052 13.6005 3.76756 16.0133 4.23058 18.3411C4.69361 20.6689 5.83649 22.8071 7.51472 24.4853C9.19296 26.1635 11.3312 27.3064 13.6589 27.7694C15.9867 28.2325 18.3995 27.9948 20.5922 27.0866C22.7849 26.1783 24.6591 24.6402 25.9776 22.6668C27.2962 20.6935 28 18.3734 28 16C27.9963 12.8185 26.7308 9.76845 24.4812 7.51882C22.2316 5.26918 19.1815 4.00371 16 4.00001Z"
        fill="black" />
</svg>