<svg width="24" height="24" viewBox="0 0 24 24" fill="none" xmlns="http://www.w3.org/2000/svg">
<path d="M6.11907 16.7958C5.51767 16.8839 4.52767 17.0479 3.86907 16.3008C3.21048 15.5536 2.64095 13.7494 2.39063 12.1369C2.02126 9.76029 2.38782 7.75733 3.42188 6.49733C4.03126 5.75529 4.83095 5.32545 5.7347 5.25701C6.5086 5.19748 7.66501 5.50029 8.78157 7.28154C9.48095 8.39764 10.013 9.88029 10.2413 11.3489C10.5169 13.1217 10.7855 15.0136 9.84563 15.6919C9.31548 16.0748 8.93485 16.2075 8.03532 16.4217C7.29563 16.5975 6.72095 16.7072 6.11907 16.7958ZM5.04938 18.3206L10.1536 17.2678C10.5849 17.1787 10.9308 17.4159 11.0911 18.1265C11.617 20.459 10.8633 23.25 8.50267 23.25C6.2672 23.25 4.77751 20.7019 4.53423 19.3322C4.42313 18.7111 4.58157 18.4167 5.04938 18.3206ZM15.9652 11.9222C15.0656 11.7089 14.685 11.5753 14.1549 11.1923C13.215 10.514 13.4836 8.62217 13.7592 6.84936C13.9875 5.38076 14.5195 3.89623 15.2189 2.78201C16.3345 1.00076 17.4909 0.697951 18.2658 0.757483C19.1686 0.826389 19.9688 1.2553 20.5781 1.99733C21.6131 3.25733 21.9797 5.26029 21.6094 7.63686C21.3586 9.24936 20.7909 11.0475 20.1286 11.8008C19.4663 12.554 18.4819 12.3839 17.8786 12.2958C17.2753 12.2076 16.7044 12.0975 15.9652 11.9222ZM18.9506 13.8206L13.8464 12.7678C13.4152 12.6787 13.0692 12.9159 12.9089 13.6265C12.3834 15.959 13.1372 18.75 15.4978 18.75C17.7333 18.75 19.223 16.2019 19.4663 14.8322C19.5769 14.2111 19.4184 13.9167 18.9506 13.8206Z" fill="black"/>
</svg>
