<svg width="62" height="63" viewBox="0 0 62 63" fill="none" xmlns="http://www.w3.org/2000/svg">
<path d="M38.7947 21.6571L41.9476 17.6294C42.4561 16.9798 43.4843 17.2724 43.5702 18.0847L44.773 27.8503C44.8357 28.3651 44.4853 28.8126 43.9706 28.8753L34.2163 30.0636C33.404 30.1495 32.8731 29.2216 33.3816 28.572L36.5345 24.5443C31.1498 20.3291 23.0263 21.9326 19.8366 28.446C17.9499 32.2542 18.5381 36.9753 21.2695 40.2078C25.5757 45.3249 32.9351 45.3817 37.3686 41.1458C37.6857 40.8467 38.0989 40.6705 38.5342 40.6486C38.9695 40.6266 39.3984 40.7605 39.7439 41.0262C40.6101 41.7042 40.7041 43.0118 39.9105 43.7875C34.0544 49.4244 24.3473 49.3924 18.5587 42.719C14.744 38.3125 13.957 31.8526 16.6022 26.6591C20.9704 18.1346 31.6632 16.0745 38.7947 21.6571Z" fill="black"/>
</svg>
