<svg width="24" height="24" viewBox="0 0 24 24" fill="none" xmlns="http://www.w3.org/2000/svg">
<path d="M20.919 4.63478L14.966 20.7148C14.59 21.7308 13.507 22.2528 12.548 21.8798C12.3105 21.7857 12.095 21.6435 11.9152 21.4621C11.7353 21.2807 11.595 21.0641 11.503 20.8258L9.61595 16.0558C9.26134 15.1401 8.55837 14.4023 7.66095 14.0038L3.11895 12.0228C2.17395 11.6098 1.74395 10.4648 2.15695 9.46479C2.25464 9.22332 2.39924 9.00363 2.58239 8.81843C2.76554 8.63322 2.9836 8.48617 3.22395 8.38579L18.54 2.13578C19.507 1.74078 20.58 2.23678 20.935 3.24478C21.092 3.69078 21.085 4.18478 20.919 4.63478Z" fill="black"/>
</svg>
