<svg width="13" height="13" viewBox="0 0 13 13" fill="none" xmlns="http://www.w3.org/2000/svg">
<g id="jam:gps-f">
<path id="Vector" d="M11.4399 3.09754L8.46345 11.1375C8.27545 11.6455 7.73395 11.9065 7.25445 11.72C7.1357 11.673 7.02798 11.6019 6.93806 11.5112C6.84814 11.4205 6.77796 11.3122 6.73195 11.193L5.78845 8.80804C5.61114 8.35022 5.25966 7.9813 4.81095 7.78204L2.53995 6.79154C2.06745 6.58504 1.85245 6.01254 2.05895 5.51254C2.10779 5.39181 2.18009 5.28197 2.27167 5.18936C2.36324 5.09676 2.47227 5.02323 2.59245 4.97304L10.2504 1.84804C10.7339 1.65054 11.2704 1.89854 11.4479 2.40254C11.5264 2.62554 11.5229 2.87254 11.4399 3.09754Z" fill="#FFFFFD"/>
</g>
</svg>
