<svg width="24" height="24" viewBox="0 0 24 24" fill="none" xmlns="http://www.w3.org/2000/svg">
    <path
        d="M10.74 2.444C11.0963 2.15495 11.5412 1.99719 12 1.99719C12.4588 1.99719 12.9037 2.15495 13.26 2.444L20.888 8.624C21.2349 8.90489 21.5147 9.25962 21.707 9.66236C21.8994 10.0651 21.9995 10.5057 22 10.952V20C22 20.5304 21.7893 21.0391 21.4142 21.4142C21.0391 21.7893 20.5304 22 20 22H16C15.4696 22 14.9609 21.7893 14.5858 21.4142C14.2107 21.0391 14 20.5304 14 20V14H10V20C10 20.5304 9.78929 21.0391 9.41421 21.4142C9.03914 21.7893 8.53043 22 8 22H4C3.46957 22 2.96086 21.7893 2.58579 21.4142C2.21071 21.0391 2 20.5304 2 20V10.954C1.99991 10.507 2.09971 10.0656 2.29211 9.66217C2.4845 9.25869 2.76462 8.90331 3.112 8.622L10.74 2.444ZM19.63 10.176L12 4L4.37 10.176C4.25424 10.2699 4.16094 10.3885 4.09692 10.5231C4.03291 10.6577 3.99979 10.8049 4 10.954V20H8V14C8 13.4696 8.21071 12.9609 8.58579 12.5858C8.96086 12.2107 9.46957 12 10 12H14C14.5304 12 15.0391 12.2107 15.4142 12.5858C15.7893 12.9609 16 13.4696 16 14V20H20V10.954C20.0002 10.8049 19.9671 10.6577 19.9031 10.5231C19.8391 10.3885 19.7458 10.2699 19.63 10.176Z"
        fill="#000" />
</svg>