<svg width="24" height="24" viewBox="0 0 24 24" fill="none" xmlns="http://www.w3.org/2000/svg">
<path fill-rule="evenodd" clip-rule="evenodd" d="M12 1C12.5523 1 13 1.44772 13 2V5C13 5.55228 12.5523 6 12 6C11.4477 6 11 5.55228 11 5V2C11 1.44772 11.4477 1 12 1ZM1 12C1 11.4477 1.44772 11 2 11H5C5.55228 11 6 11.4477 6 12C6 12.5523 5.55228 13 5 13H2C1.44772 13 1 12.5523 1 12ZM18 12C18 11.4477 18.4477 11 19 11H22C22.5523 11 23 11.4477 23 12C23 12.5523 22.5523 13 22 13H19C18.4477 13 18 12.5523 18 12ZM12 18C12.5523 18 13 18.4477 13 19V22C13 22.5523 12.5523 23 12 23C11.4477 23 11 22.5523 11 22V19C11 18.4477 11.4477 18 12 18Z" fill="black"/>
<path fill-rule="evenodd" clip-rule="evenodd" d="M12 6C8.68629 6 6 8.68629 6 12C6 15.3137 8.68629 18 12 18C15.3137 18 18 15.3137 18 12C18 8.68629 15.3137 6 12 6ZM4 12C4 7.58172 7.58172 4 12 4C16.4183 4 20 7.58172 20 12C20 16.4183 16.4183 20 12 20C7.58172 20 4 16.4183 4 12Z" fill="black"/>
<path fill-rule="evenodd" clip-rule="evenodd" d="M12 10C10.8954 10 10 10.8954 10 12C10 13.1046 10.8954 14 12 14C13.1046 14 14 13.1046 14 12C14 10.8954 13.1046 10 12 10ZM8 12C8 9.79086 9.79086 8 12 8C14.2091 8 16 9.79086 16 12C16 14.2091 14.2091 16 12 16C9.79086 16 8 14.2091 8 12Z" fill="black"/>
</svg>
