<svg width="29" height="29" viewBox="0 0 29 29" fill="none" xmlns="http://www.w3.org/2000/svg">
<path fill-rule="evenodd" clip-rule="evenodd" d="M14.9806 1.44684C15.6249 1.44684 16.1472 1.96917 16.1472 2.61351V6.11351C16.1472 6.75784 15.6249 7.28017 14.9806 7.28017C14.3362 7.28017 13.8139 6.75784 13.8139 6.11351V2.61351C13.8139 1.96917 14.3362 1.44684 14.9806 1.44684ZM2.14722 14.2802C2.14722 13.6358 2.66955 13.1135 3.31388 13.1135H6.81388C7.45822 13.1135 7.98055 13.6358 7.98055 14.2802C7.98055 14.9245 7.45822 15.4468 6.81388 15.4468H3.31388C2.66955 15.4468 2.14722 14.9245 2.14722 14.2802ZM21.9806 14.2802C21.9806 13.6358 22.5029 13.1135 23.1472 13.1135H26.6472C27.2916 13.1135 27.8139 13.6358 27.8139 14.2802C27.8139 14.9245 27.2916 15.4468 26.6472 15.4468H23.1472C22.5029 15.4468 21.9806 14.9245 21.9806 14.2802ZM14.9806 21.2802C15.6249 21.2802 16.1472 21.8025 16.1472 22.4468V25.9468C16.1472 26.5912 15.6249 27.1135 14.9806 27.1135C14.3362 27.1135 13.8139 26.5912 13.8139 25.9468V22.4468C13.8139 21.8025 14.3362 21.2802 14.9806 21.2802Z" fill="#FFFFFD"/>
<path fill-rule="evenodd" clip-rule="evenodd" d="M14.9806 7.28017C11.1146 7.28017 7.98055 10.4142 7.98055 14.2802C7.98055 18.1462 11.1146 21.2802 14.9806 21.2802C18.8465 21.2802 21.9806 18.1462 21.9806 14.2802C21.9806 10.4142 18.8465 7.28017 14.9806 7.28017ZM5.64722 14.2802C5.64722 9.12551 9.82589 4.94684 14.9806 4.94684C20.1352 4.94684 24.3139 9.12551 24.3139 14.2802C24.3139 19.4348 20.1352 23.6135 14.9806 23.6135C9.82589 23.6135 5.64722 19.4348 5.64722 14.2802Z" fill="#FFFFFD"/>
<path fill-rule="evenodd" clip-rule="evenodd" d="M14.9806 11.9469C13.692 11.9469 12.6473 12.9915 12.6473 14.2802C12.6473 15.5689 13.692 16.6135 14.9806 16.6135C16.2693 16.6135 17.314 15.5689 17.314 14.2802C17.314 12.9915 16.2693 11.9469 14.9806 11.9469ZM10.314 14.2802C10.314 11.7029 12.4033 9.61353 14.9806 9.61353C17.558 9.61353 19.6473 11.7029 19.6473 14.2802C19.6473 16.8575 17.558 18.9469 14.9806 18.9469C12.4033 18.9469 10.314 16.8575 10.314 14.2802Z" fill="#FFFFFD"/>
</svg>
