<svg width="29" height="29" viewBox="0 0 29 29" fill="none" xmlns="http://www.w3.org/2000/svg">
<path d="M5.94821 6.28015C5.41192 6.28015 4.98047 6.71741 4.98047 7.26092V9.22246C4.98047 9.76597 5.41192 10.2032 5.94821 10.2032H7.88369C8.41998 10.2032 8.85144 9.76597 8.85144 9.22246V7.26092C8.85144 6.71741 8.41998 6.28015 7.88369 6.28015H5.94821ZM12.0772 6.934C11.3635 6.934 10.7869 7.51837 10.7869 8.24169C10.7869 8.96501 11.3635 9.54938 12.0772 9.54938L23.6901 9.54938C24.4039 9.54938 24.9805 8.96501 24.9805 8.24169C24.9805 7.51837 24.4039 6.934 23.6901 6.934L12.0772 6.934ZM12.0772 13.4725C11.3635 13.4725 10.7869 14.0568 10.7869 14.7802C10.7869 15.5035 11.3635 16.0878 12.0772 16.0878H23.6901C24.4039 16.0878 24.9805 15.5035 24.9805 14.7802C24.9805 14.0568 24.4039 13.4725 23.6901 13.4725H12.0772ZM12.0772 20.0109C11.3635 20.0109 10.7869 20.5953 10.7869 21.3186C10.7869 22.0419 11.3635 22.6263 12.0772 22.6263H23.6901C24.4039 22.6263 24.9805 22.0419 24.9805 21.3186C24.9805 20.5953 24.4039 20.0109 23.6901 20.0109H12.0772ZM4.98047 13.7994V15.7609C4.98047 16.3044 5.41192 16.7417 5.94821 16.7417H7.88369C8.41998 16.7417 8.85144 16.3044 8.85144 15.7609V13.7994C8.85144 13.2559 8.41998 12.8186 7.88369 12.8186H5.94821C5.41192 12.8186 4.98047 13.2559 4.98047 13.7994ZM5.94821 19.3571C5.41192 19.3571 4.98047 19.7943 4.98047 20.3378V22.2994C4.98047 22.8429 5.41192 23.2802 5.94821 23.2802H7.88369C8.41998 23.2802 8.85144 22.8429 8.85144 22.2994V20.3378C8.85144 19.7943 8.41998 19.3571 7.88369 19.3571H5.94821Z" fill="#FFFFFD"/>
</svg>
