<svg width="24" height="24" viewBox="0 0 24 24" fill="none" xmlns="http://www.w3.org/2000/svg">
<path d="M2.96774 4C2.43145 4 2 4.43726 2 4.98077V6.94231C2 7.48582 2.43145 7.92308 2.96774 7.92308H4.90323C5.43952 7.92308 5.87097 7.48582 5.87097 6.94231V4.98077C5.87097 4.43726 5.43952 4 4.90323 4H2.96774ZM9.09677 4.65385C8.38306 4.65385 7.80645 5.23822 7.80645 5.96154C7.80645 6.68486 8.38306 7.26923 9.09677 7.26923H20.7097C21.4234 7.26923 22 6.68486 22 5.96154C22 5.23822 21.4234 4.65385 20.7097 4.65385H9.09677ZM9.09677 11.1923C8.38306 11.1923 7.80645 11.7767 7.80645 12.5C7.80645 13.2233 8.38306 13.8077 9.09677 13.8077H20.7097C21.4234 13.8077 22 13.2233 22 12.5C22 11.7767 21.4234 11.1923 20.7097 11.1923H9.09677ZM9.09677 17.7308C8.38306 17.7308 7.80645 18.3151 7.80645 19.0385C7.80645 19.7618 8.38306 20.3462 9.09677 20.3462H20.7097C21.4234 20.3462 22 19.7618 22 19.0385C22 18.3151 21.4234 17.7308 20.7097 17.7308H9.09677ZM2 11.5192V13.4808C2 14.0243 2.43145 14.4615 2.96774 14.4615H4.90323C5.43952 14.4615 5.87097 14.0243 5.87097 13.4808V11.5192C5.87097 10.9757 5.43952 10.5385 4.90323 10.5385H2.96774C2.43145 10.5385 2 10.9757 2 11.5192ZM2.96774 17.0769C2.43145 17.0769 2 17.5142 2 18.0577V20.0192C2 20.5627 2.43145 21 2.96774 21H4.90323C5.43952 21 5.87097 20.5627 5.87097 20.0192V18.0577C5.87097 17.5142 5.43952 17.0769 4.90323 17.0769H2.96774Z" fill="black"/>
</svg>
