<svg width="24" height="24" viewBox="0 0 24 24" fill="none" xmlns="http://www.w3.org/2000/svg">
<path d="M22.0819 14.0822C21.4762 16.0593 20.2624 17.7951 18.6131 19.0425C17.1651 20.1323 15.442 20.797 13.6373 20.9619C11.8325 21.1268 10.0175 20.7855 8.39594 19.9762C6.7744 19.1668 5.41051 17.9216 4.45737 16.3802C3.50422 14.8388 2.99955 13.0623 2.99998 11.25C2.99347 9.13467 3.68113 7.07562 4.95749 5.38874C6.20486 3.73948 7.94064 2.52566 9.9178 1.91999C10.0481 1.87987 10.1869 1.87602 10.3192 1.90888C10.4516 1.94173 10.5724 2.01004 10.6688 2.10645C10.7653 2.20286 10.8336 2.32373 10.8664 2.45607C10.8993 2.5884 10.8954 2.72718 10.8553 2.85749C10.423 4.28758 10.3867 5.80817 10.7504 7.25724C11.1141 8.7063 11.8641 10.0296 12.9206 11.086C13.977 12.1424 15.3002 12.8924 16.7493 13.2561C18.1984 13.6198 19.719 13.5836 21.149 13.1512C21.2794 13.1111 21.4181 13.1073 21.5505 13.1401C21.6828 13.173 21.8037 13.2413 21.9001 13.3377C21.9965 13.4341 22.0648 13.555 22.0977 13.6873C22.1305 13.8196 22.1267 13.9584 22.0865 14.0887L22.0819 14.0822Z" fill="black"/>
</svg>
