<svg width="52" height="57" viewBox="0 0 52 57" fill="none" xmlns="http://www.w3.org/2000/svg">
<g filter="url(#filter0_d_567_869)">
<path d="M37 28.0006C37.0008 28.3402 36.9138 28.6741 36.7473 28.97C36.5808 29.266 36.3406 29.5138 36.05 29.6894L18.04 40.7069C17.7364 40.8928 17.3886 40.9943 17.0326 41.0009C16.6766 41.0075 16.3253 40.9189 16.015 40.7444C15.7076 40.5725 15.4516 40.3219 15.2732 40.0183C15.0948 39.7147 15.0005 39.369 15 39.0169V16.9844C15.0005 16.6322 15.0948 16.2866 15.2732 15.983C15.4516 15.6793 15.7076 15.4287 16.015 15.2569C16.3253 15.0823 16.6766 14.9938 17.0326 15.0003C17.3886 15.0069 17.7364 15.1084 18.04 15.2944L36.05 26.3119C36.3406 26.4875 36.5808 26.7353 36.7473 27.0312C36.9138 27.3271 37.0008 27.6611 37 28.0006Z" fill="url(#paint0_linear_567_869)"/>
</g>
<defs>
<filter id="filter0_d_567_869" x="0" y="0" width="52" height="56.0013" filterUnits="userSpaceOnUse" color-interpolation-filters="sRGB">
<feFlood flood-opacity="0" result="BackgroundImageFix"/>
<feColorMatrix in="SourceAlpha" type="matrix" values="0 0 0 0 0 0 0 0 0 0 0 0 0 0 0 0 0 0 127 0" result="hardAlpha"/>
<feOffset/>
<feGaussianBlur stdDeviation="7.5"/>
<feComposite in2="hardAlpha" operator="out"/>
<feColorMatrix type="matrix" values="0 0 0 0 0.858824 0 0 0 0 0.956863 0 0 0 0 0.243137 0 0 0 0.3 0"/>
<feBlend mode="normal" in2="BackgroundImageFix" result="effect1_dropShadow_567_869"/>
<feBlend mode="normal" in="SourceGraphic" in2="effect1_dropShadow_567_869" result="shape"/>
</filter>
<linearGradient id="paint0_linear_567_869" x1="35.8402" y1="17.8322" x2="13.8702" y2="21.1717" gradientUnits="userSpaceOnUse">
<stop stop-color="#DBF43E"/>
<stop offset="1" stop-color="#DEF0A7"/>
</linearGradient>
</defs>
</svg>
