<svg width="24" height="24" viewBox="0 0 24 24" fill="none" xmlns="http://www.w3.org/2000/svg">
<path fill-rule="evenodd" clip-rule="evenodd" d="M8 15C7.20435 15 6.44129 15.3161 5.87868 15.8787C5.31607 16.4413 5 17.2044 5 18C5 18.2652 5.10536 18.5196 5.29289 18.7071C5.48043 18.8946 5.73478 19 6 19H18C18.2652 19 18.5196 18.8946 18.7071 18.7071C18.8946 18.5196 19 18.2652 19 18C19 17.2044 18.6839 16.4413 18.1213 15.8787C17.5587 15.3161 16.7956 15 16 15H8ZM4.46447 14.4645C5.40215 13.5268 6.67392 13 8 13H16C17.3261 13 18.5979 13.5268 19.5355 14.4645C20.4732 15.4021 21 16.6739 21 18C21 18.7957 20.6839 19.5587 20.1213 20.1213C19.5587 20.6839 18.7957 21 18 21H6C5.20435 21 4.44129 20.6839 3.87868 20.1213C3.31607 19.5587 3 18.7956 3 18C3 16.6739 3.52678 15.4021 4.46447 14.4645Z" fill="black"/>
<path fill-rule="evenodd" clip-rule="evenodd" d="M12 5C10.8954 5 10 5.89543 10 7C10 8.10457 10.8954 9 12 9C13.1046 9 14 8.10457 14 7C14 5.89543 13.1046 5 12 5ZM8 7C8 4.79086 9.79086 3 12 3C14.2091 3 16 4.79086 16 7C16 9.20914 14.2091 11 12 11C9.79086 11 8 9.20914 8 7Z" fill="black"/>
</svg>
