<svg width="62" height="63" viewBox="0 0 62 63" fill="none" xmlns="http://www.w3.org/2000/svg">
<path d="M22.9739 21.6571L19.8209 17.6294C19.3124 16.9798 18.2842 17.2724 18.1983 18.0847L16.9956 27.8503C16.9329 28.3651 17.2832 28.8126 17.798 28.8753L27.5523 30.0636C28.3645 30.1495 28.8955 29.2216 28.3869 28.572L25.234 24.5443C30.6187 20.3291 38.7423 21.9326 41.9319 28.446C43.8187 32.2542 43.2305 36.9753 40.499 40.2078C36.1929 45.3249 28.8335 45.3817 24.4 41.1458C24.0829 40.8467 23.6696 40.6705 23.2343 40.6486C22.7991 40.6266 22.3702 40.7605 22.0247 41.0262C21.1585 41.7042 21.0645 43.0118 21.858 43.7875C27.7141 49.4244 37.4212 49.3924 43.2098 42.719C47.0246 38.3125 47.8116 31.8526 45.1663 26.6591C40.7982 18.1346 30.1053 16.0745 22.9739 21.6571Z" fill="black"/>
</svg>
