<svg width="24" height="24" viewBox="0 0 24 24" fill="none" xmlns="http://www.w3.org/2000/svg">
<path fill-rule="evenodd" clip-rule="evenodd" d="M7.55573 2.68486C8.64769 2.23255 9.81804 1.99976 11 1.99976C12.1819 1.99976 13.3522 2.23255 14.4442 2.68486C15.5361 3.13716 16.5283 3.80011 17.3641 4.63586C18.1998 5.4716 18.8628 6.46378 19.3151 7.55573C19.7674 8.64769 20.0002 9.81804 20.0002 11C20.0002 12.1819 19.7674 13.3522 19.3151 14.4442C18.9909 15.2269 18.5585 15.9583 18.0318 16.6176L21.7071 20.2929C22.0976 20.6834 22.0976 21.3165 21.7071 21.7071C21.3165 22.0976 20.6834 22.0976 20.2929 21.7071L16.6176 18.0318C15.0303 19.2999 13.0512 20.0002 11 20.0002C8.61296 20.0002 6.32372 19.0519 4.63585 17.3641C2.94799 15.6762 1.99976 13.387 1.99976 11C1.99976 8.61296 2.94799 6.32372 4.63585 4.63586C5.4716 3.80011 6.46378 3.13716 7.55573 2.68486ZM11 3.99976C10.0807 3.99976 9.1704 4.18082 8.3211 4.53261C7.47179 4.88441 6.7001 5.40004 6.05007 6.05007C4.73728 7.36286 3.99976 9.14339 3.99976 11C3.99976 12.8565 4.73728 14.6371 6.05007 15.9499C7.36286 17.2626 9.14339 18.0002 11 18.0002C12.8565 18.0002 14.6371 17.2626 15.9499 15.9499C16.5999 15.2998 17.1155 14.5281 17.4673 13.6788C17.8191 12.8295 18.0002 11.9192 18.0002 11C18.0002 10.0807 17.8191 9.1704 17.4673 8.3211C17.1155 7.4718 16.5999 6.7001 15.9499 6.05007C15.2998 5.40004 14.5281 4.88441 13.6788 4.53261C12.8295 4.18082 11.9192 3.99976 11 3.99976Z" fill="black"/>
</svg>
